<?xml version="1.0" encoding="UTF-8" standalone="no"?>
<svg
   enable-background="new 0 0 50 50"
   viewBox="0 0 50 50"
   version="1.1"
   id="svg24"
   sodipodi:docname="winegui.svg"
   inkscape:version="1.2 (1:1.2+202206011327+fc4e4096c5)"
   xmlns:inkscape="http://www.inkscape.org/namespaces/inkscape"
   xmlns:sodipodi="http://sodipodi.sourceforge.net/DTD/sodipodi-0.dtd"
   xmlns="http://www.w3.org/2000/svg"
   xmlns:svg="http://www.w3.org/2000/svg"
   xmlns:rdf="http://www.w3.org/1999/02/22-rdf-syntax-ns#"
   xmlns:cc="http://creativecommons.org/ns#">
  <defs
     id="defs28" />
  <sodipodi:namedview
     id="namedview26"
     pagecolor="#ffffff"
     bordercolor="#666666"
     borderopacity="1.0"
     inkscape:showpageshadow="2"
     inkscape:pageopacity="0.0"
     inkscape:pagecheckerboard="0"
     inkscape:deskcolor="#d1d1d1"
     showgrid="false"
     inkscape:zoom="16.06"
     inkscape:cx="24.968867"
     inkscape:cy="24.968867"
     inkscape:window-width="1920"
     inkscape:window-height="1007"
     inkscape:window-x="1920"
     inkscape:window-y="0"
     inkscape:window-maximized="1"
     inkscape:current-layer="svg24" />
  <path
     fill="#D6D6D6"
     d="M9.0443,39.64302c-4.60553-2.45667-8.78572-1.01931-7.14848,1.01551    c3.87733,4.81889,14.50607,4.9714,10.77956,1.06725c-0.86115-0.90219-1.92092-1.61692-3.06688-2.06837"
     id="path2" />
  <path
     fill="#D6D6D6"
     d="M18.96146,9.96214c-0.84701-0.46303-1.69593-1.03613-2.58401-1.41268    c-0.77456-0.32842-1.39288,0.11849-1.98084,0.65432c-3.51431,3.20268-7.89104,8.32004-6.73094,12.95373    c0.60405,2.41266,2.89142,4.42762,2.6846,7.02905c-0.09043,1.13748-1.68529,6.58093-3.32746,9.60941    c-0.45266,0.83479-1.5734,1.52957,0.16241,2.25952c1.70171,0.71561,2.14625,0.23803,2.38689-1.6087    c0.32658-2.50627,2.3167-7.91391,3.70981-9.33139c1.14752-1.16759,4.70581-0.79269,7.22787-3.27395    c2.75229-2.70777,3.95773-9.00375,3.58441-13.32235C24.00676,12.5074,24.25073,12.85362,18.96146,9.96214z"
     id="path4" />
  <path
     fill="#ED2F25"
     d="M17.51403,18.73639c-2.44497-1.91141-4.23783-3.97259-6.63986-2.39361    c-3.45663,2.27223-2.3577,10.12992,4.00307,10.77188c1.47994,0.14936,3.41453-0.17716,4.59301-1.14322    c2.21619-1.81671,3.74885-6.36502,0.95126-7.01912c-0.7684-0.17966-1.61101,0.11783-2.34531-0.2382"
     id="path6" />
  <path
     fill="#D6D6D6"
     d="M40.92368,39.64302c2.10322-1.12189,4.65706-1.89653,6.79483-0.82382    c0.36884,0.18508,0.73801,0.47376,0.76404,0.8957c0.02086,0.33828-0.18705,0.66605-0.41038,0.94363    c-1.00016,1.24303-2.44677,2.04709-3.89769,2.67509c-2.01357,0.87153-4.2346,1.48121-6.27216,1.02213    c-0.57302-0.12911-1.18435-0.40937-1.32314-0.97697c-0.14189-0.58032,0.27323-1.19182,0.71342-1.653    c0.86115-0.90219,1.92091-1.61692,3.06688-2.06837"
     id="path8" />
  <path
     fill="#D6D6D6"
     d="M31.00651,9.96214c0.84701-0.46303,1.69593-1.03613,2.58401-1.41268    c0.77456-0.32842,1.39288,0.11849,1.98084,0.65432c3.48146,3.17274,7.87638,8.37863,6.73094,12.95373    c-0.60405,2.41266-2.89142,4.42762-2.6846,7.02905c0.0577,0.7258,0.27157,1.42889,0.48413,2.12526    c2.96598,9.71691,4.24618,8.43526,3.41592,9.30781c-0.19784,0.20792-0.47045,0.32461-0.73501,0.43586    c-0.81085,0.34098-1.64735,0.64632-2.11148-0.34953c-0.18229-0.39114-0.21965-0.83126-0.27541-1.25917    c-0.32658-2.50627-2.3167-7.91391-3.70981-9.33139c-0.6364-0.64754-1.23787-0.69741-2.10976-0.8913    c-1.84589-0.41049-3.7393-1.02613-5.11812-2.38265c-2.38608-2.34748-3.61865-7.62465-3.6624-11.22173    c-0.00853-0.70097,0.01762-1.4022,0.078-2.10062c0.07662-0.88634,0.31162-0.92138,1.0867-1.34511    C28.30913,11.43668,29.65783,10.69942,31.00651,9.96214z"
     id="path10" />
  <path
     fill="#ED2F25"
     d="M32.45395,18.73639c2.68102-2.09595,3.19522-2.57945,4.05005-2.8288    c3.21005-0.93637,6.05255,3.5894,3.61559,8.048c-1.91397,3.50175-7.11177,4.07348-9.62186,2.01585    c-2.00624-1.6446-2.75715-4.48519-2.34915-5.76218c0.62124-1.9444,2.72233-1.00018,3.74319-1.49514"
     id="path12" />
  <path
     fill="#353535"
     d="M21.57388,10.80799c-5.27434-2.83721-5.58041-3.73438-7.51465-1.97363    c-3.80469,3.46826-8.08789,8.61621-6.87891,13.44483c0.62163,2.47603,2.86196,4.47825,2.67188,6.86768    c-0.0838,1.04724-1.54742,6.05658-3.09674,9.07788c-4.17819-1.14827-6.90222,0.69255-5.24896,2.74731    c3.23086,4.01645,11.5356,5.24807,12.38184,2.62646c0.52808-1.62905-2.22003-3.57587-3.79187-4.26465    c0.38556-2.52991,2.29327-7.59711,3.54187-8.86767c0.97511-0.99312,4.61682-0.70563,7.22168-3.26807    c2.83691-2.79102,4.12598-9.16846,3.73242-13.72266C24.35844,12.37516,24.83282,12.55935,21.57388,10.80799z M12.93716,43.29041    c-0.41108,1.26908-7.47369,1.00418-10.65137-2.94531c-1.10165-1.36739,1.69365-1.80475,3.92584-1.24109    c-0.2843,0.38885-0.56982,0.8255-0.42682,1.3446c0.23569,0.85659,1.88522,1.42383,2.60059,1.42383    c0.97443,0,1.35449-0.77118,1.534-1.51422c0.88647,0.42078,1.71045,0.99615,2.39471,1.71295    C12.79654,42.57752,13.02408,43.02185,12.93716,43.29041z M20.15884,26.48524c-2.38169,2.34336-5.95304,1.97625-7.2334,3.27979    c-1.54199,1.56885-3.52637,7.14404-3.84961,9.61719c-0.19933,1.53979-0.3532,1.77776-1.69629,1.2124    c-0.57813-0.24316-0.62988-0.41016-0.63086-0.41162c-0.03766-0.13615,0.50251-0.75917,0.71387-1.14893    c1.69922-3.13428,3.29199-8.63037,3.38574-9.8081c0.22293-2.80186-2.11485-4.86154-2.69727-7.18994    c-1.14648-4.57861,3.63184-9.77344,6.58203-12.4624c1.31078-1.19468,0.97358-0.78602,6.36816,2.11523    c2.64,1.4194,2.45111,1.31715,2.49512,1.87305C23.96158,17.79139,22.75162,23.93494,20.15884,26.48524z"
     id="path14" />
  <path
     fill="#353535"
     d="M19.41568,18.6449c-1.82184,0.04785-2.03802-0.33173-2.75-0.91504    c-1.99219-1.6377-3.71582-3.05176-5.92969-1.59619c-1.71191,1.12598-2.44824,3.57031-1.83203,6.08252    c1.39146,5.675,7.97794,6.20115,10.72461,3.94873C22.37381,23.91418,23.74197,18.51694,19.41568,18.6449z M19.31216,25.7782    c-2.50727,2.05324-8.62661,1.60596-9.92285-3.68115c-0.55664-2.271,0.10938-4.55127,1.62207-5.54541    c1.90234-1.25342,3.41992-0.01074,5.33691,1.56445c0.67365,0.552,0.93073,1.08099,3.08105,1.02881    C23.33091,19.04132,21.42955,24.042,19.31216,25.7782z"
     id="path16" />
  <path
     fill="#353535"
     d="M11.21353 18.67566c.0752-.11621.04199-.271-.07422-.3457-.11621-.0752-.27051-.04199-.3457.07422-1.18708 1.83578-.54837 4.31956 1.38965 5.3501.03711.02002.07715.0293.11719.0293.08887 0 .17578-.04785.2207-.13232.06445-.12207.01855-.27344-.10352-.33838C10.7448 22.42226 10.18197 20.27223 11.21353 18.67566zM12.25162 14.76795c.09277 0 .18262-.05225.22559-.14209.76758-1.60303 1.94434-2.98584 3.4043-4.00049.27264-.1892-.01566-.59928-.28516-.41016-1.53125 1.06348-2.76563 2.51367-3.57031 4.19482-.05957.12451-.00684.27393.11719.3335C12.17837 14.76014 12.21548 14.76795 12.25162 14.76795zM47.94302 38.37244c-1.34991-.67761-2.94189-.73547-4.74255-.20801-.60687-1.21069-1.49086-3.29895-2.61975-6.99853-.20215-.66016-.41113-1.34229-.46484-2.01904-.11133-1.39941.5957-2.64063 1.34373-3.9541.52443-.92188 1.0674-1.875 1.32814-2.91357 1.27246-5.08398-3.76465-10.60547-6.87988-13.44483-1.96547-1.79259-2.23357-.91731-9.3916 3.01123-1.0334.55167-1.25827.73907-1.2207 3.78027.04785 3.93408 1.37305 9.17285 3.8125 11.57227 1.53809 1.51465 3.67188 2.13916 5.35938 2.51416l.33008.07031c.67578.1416 1.08301.22705 1.53223.68359 1.24835 1.27124 3.15558 6.33685 3.54163 8.86584-6.92967 3.04092-3.79804 8.05314 4.50134 4.46033 1.74064-.75328 4.70978-2.52636 4.6084-4.10791C48.95865 39.31238 48.76041 38.78211 47.94302 38.37244zM35.00259 28.80408l-.31836-.06836c-1.55664-.3457-3.51758-.91406-4.875-2.25049-2.22266-2.18652-3.46973-7.2334-3.51367-10.87207-.03618-2.7938.16453-2.60419.69141-2.88525l4.25977-2.32715c.2832-.15527.56738-.32275.85352-.49072 1.80964-1.06685 2.01899-1.35247 3.13379-.33643 2.37598 2.16455 7.77246 7.7124 6.58301 12.4624-.22656.90576-.71191 1.75879-1.22656 2.66162-.79004 1.3877-1.60645 2.82227-1.4707 4.52832.06152.78564.28711 1.521.50391 2.23193 1.06555 3.49027 1.96394 6.02858 3.59375 8.75342-.30882.31694-1.26172.6709-1.60156.6709-.56531 0-.65072-.9038-.72363-1.50049-.32324-2.47168-2.30664-8.04638-3.84961-9.6167C36.38248 29.09266 35.74283 28.95887 35.00259 28.80408zM38.01236 43.86805c-2.42927-.54903.47096-2.77036 2.026-3.51343.04315.18848.09436.37854.18005.56226.37109.79785.96484.96533 1.39746.96533.6395 0 1.86437-.49768 2.26465-.91797.68748-.72308.34899-.98008-.18494-1.88525 2.47667-.65667 4.26036.1992 4.28748.66748C48.06313 41.00523 42.04004 44.78045 38.01236 43.86805z"
     id="path18" />
  <path
     fill="#353535"
     d="M40.33951,24.07557c2.57369-4.70971-0.51382-9.39532-3.90625-8.40772    c-0.76563,0.22363-1.24316,0.59912-3.01758,1.99561l-1.08435,0.85101c-0.70239,0.14343-0.62097,0.11322-1.72717,0.12506    c-0.99121,0.01123-2.22461,0.0249-2.69434,1.49365c-0.72032,2.25738,1.61611,8.34184,7.8125,7.13428    C37.76431,26.87049,39.44693,25.70691,40.33951,24.07557z M35.62662,26.77674c-5.74269,1.11497-7.85825-4.55165-7.24024-6.49121    c0.35938-1.125,1.26465-1.13525,2.22363-1.146c3.08838-0.03516,2.05579-0.703,3.11426-1.08301    c1.71484-1.34961,2.17578-1.7124,2.84961-1.90869C41.53481,14.69232,43.05981,25.33108,35.62662,26.77674z"
     id="path20" />
  <path
     fill="#353535"
     d="M38.75455 18.67566c1.02452 1.58567.48016 3.74051-1.2041 4.63721-.12207.06494-.16797.21631-.10352.33838.04492.08447.13184.13232.2207.13232.04004 0 .08008-.00928.11719-.0293 1.93793-1.03049 2.57677-3.51425 1.38965-5.3501C38.99454 18.12727 38.57449 18.39739 38.75455 18.67566zM37.71646 14.76795c.18496 0 .30455-.19287.22559-.35791-.80469-1.68115-2.03906-3.13135-3.57031-4.19482-.11133-.07813-.26953-.05127-.34766.0625-.0791.11328-.05078.26904.0625.34766C36.9635 12.62479 37.27097 14.76795 37.71646 14.76795zM24.00747 10.99305c.10254 0 .19922-.06396.23535-.1665.04688-.12988-.02148-.27295-.15137-.31885-1.55875-.55503-.67417-3.29511-3.32813-4.67529-.12207-.0625-.27148-.0166-.33691.10645-.06348.12256-.0166.27344.10645.33691C23.08415 7.60368 22.1841 10.99305 24.00747 10.99305zM27.46548 8.82801c.28834-.98346.69542-1.93269 1.88574-2.55225.12305-.06348.16992-.21436.10645-.33691-.06445-.12305-.21484-.16992-.33691-.10645-2.63474 1.37019-1.77186 4.12115-3.32813 4.67529-.12988.0459-.19824.18896-.15137.31885C25.79299 11.25712 26.86265 10.87688 27.46548 8.82801zM25.40494 4.96668c-.13281-.02979-.2666.05908-.2959.19336-.37305 1.78418-.59473 3.61279-.66113 5.43506-.00488.1377.10254.25342.24121.25879.00293 0 .00586 0 .00879 0 .13379 0 .24512-.10596.25-.24121.06445-1.79346.28418-3.59375.65137-5.3501C25.62759 5.12732 25.54068 4.995 25.40494 4.96668z"
     id="path22" />
  <metadata
     id="metadata134">
    <rdf:RDF>
      <cc:Work
         rdf:about="">
        <cc:license
           rdf:resource="http://creativecommons.org/licenses/by/4.0/" />
      </cc:Work>
      <cc:License
         rdf:about="http://creativecommons.org/licenses/by/4.0/">
        <cc:permits
           rdf:resource="http://creativecommons.org/ns#Reproduction" />
        <cc:permits
           rdf:resource="http://creativecommons.org/ns#Distribution" />
        <cc:requires
           rdf:resource="http://creativecommons.org/ns#Notice" />
        <cc:requires
           rdf:resource="http://creativecommons.org/ns#Attribution" />
        <cc:permits
           rdf:resource="http://creativecommons.org/ns#DerivativeWorks" />
      </cc:License>
    </rdf:RDF>
  </metadata>
</svg>
