<?xml version="1.0" encoding="UTF-8" standalone="no"?>
<!-- Created with Inkscape (http://www.inkscape.org/) -->
<svg xmlns:dc="http://purl.org/dc/elements/1.1/" xmlns:cc="http://creativecommons.org/ns#" xmlns:rdf="http://www.w3.org/1999/02/22-rdf-syntax-ns#" xmlns:svg="http://www.w3.org/2000/svg" xmlns="http://www.w3.org/2000/svg" xmlns:xlink="http://www.w3.org/1999/xlink" xmlns:sodipodi="http://sodipodi.sourceforge.net/DTD/sodipodi-0.dtd" xmlns:inkscape="http://www.inkscape.org/namespaces/inkscape" width="512" height="512" id="svg4936" version="1.1" inkscape:version="0.91 r13725" viewBox="0 0 512 512" sodipodi:docname="wordpad.svg">
  <defs id="defs4938">
    <linearGradient inkscape:collect="always" xlink:href="#linearGradient5127" id="linearGradient3483" gradientUnits="userSpaceOnUse" gradientTransform="matrix(0.06707255,0,0,0.041103,7.401555,29.938595)" x1="302.85999" y1="366.64999" x2="302.85999" y2="609.51001"/>
    <linearGradient id="linearGradient5127" y2="609.51001" gradientUnits="userSpaceOnUse" x2="302.85999" gradientTransform="matrix(0.06707255,0,0,0.041103,7.401555,29.938595)" y1="366.64999" x1="302.85999">
      <stop id="stop5050-3" stop-color="#000" stop-opacity="0" offset="0"/>
      <stop id="stop5056-38" stop-color="#000" offset="0.5"/>
      <stop id="stop5052-0" stop-color="#000" stop-opacity="0" offset="1"/>
    </linearGradient>
    <radialGradient inkscape:collect="always" xlink:href="#linearGradient5060" id="radialGradient3485" gradientUnits="userSpaceOnUse" gradientTransform="matrix(0.06707255,0,0,0.041103,7.414755,29.938595)" cx="605.71002" cy="486.64999" r="117.14"/>
    <linearGradient id="linearGradient5060">
      <stop id="stop5062" stop-color="#000" offset="0"/>
      <stop id="stop5064" stop-color="#000" stop-opacity="0" offset="1"/>
    </linearGradient>
    <radialGradient inkscape:collect="always" xlink:href="#linearGradient5060" id="radialGradient3487" gradientUnits="userSpaceOnUse" gradientTransform="matrix(-0.06707255,0,0,0.041103,55.872233,29.938595)" cx="605.71002" cy="486.64999" r="117.14"/>
    <linearGradient inkscape:collect="always" xlink:href="#linearGradient5116" id="linearGradient3489" gradientUnits="userSpaceOnUse" gradientTransform="matrix(1.137871,0,0,1,5.357601,8.000004)" x1="21.042999" y1="42.833" x2="14.284" y2="6.8333998"/>
    <linearGradient id="linearGradient5116" y2="6.8333998" gradientUnits="userSpaceOnUse" x2="14.284" gradientTransform="matrix(1.137871,0,0,1,5.357601,8.000004)" y1="42.833" x1="21.042999">
      <stop id="stop2857-1" stop-color="#dfdfdf" offset="0"/>
      <stop id="stop2859-1" stop-color="#FFF" offset="1"/>
    </linearGradient>
    <linearGradient inkscape:collect="always" xlink:href="#linearGradient5118" id="linearGradient3491" gradientUnits="userSpaceOnUse" gradientTransform="translate(8.018485,8.000004)" x1="26.612" y1="28.083" x2="26.228001" y2="42.833"/>
    <linearGradient id="linearGradient5118" y2="42.833" gradientUnits="userSpaceOnUse" x2="26.228001" gradientTransform="translate(8.018485,8.000004)" y1="28.083" x1="26.612">
      <stop id="stop2875-3" stop-color="#939393" offset="0"/>
      <stop id="stop2877-40" stop-color="#424242" offset="1"/>
    </linearGradient>
    <linearGradient inkscape:collect="always" xlink:href="#linearGradient5080" id="linearGradient3493" gradientUnits="userSpaceOnUse" gradientTransform="matrix(1.4738147,0,0,1.1888231,5.556046,12.015783)" x1="11" y1="12" x2="18.962" y2="18.183001"/>
    <linearGradient id="linearGradient5080" y2="18.183001" gradientUnits="userSpaceOnUse" x2="18.962" gradientTransform="matrix(1.4738147,0,0,1.1888231,5.556046,12.015783)" y1="12" x1="11">
      <stop id="stop4769-8" stop-color="#729fcf" offset="0"/>
      <stop id="stop4771-1" stop-color="#3465a4" offset="1"/>
    </linearGradient>
    <linearGradient inkscape:collect="always" xlink:href="#linearGradient5066" id="linearGradient3495" gradientUnits="userSpaceOnUse" gradientTransform="translate(8.018485,8.000004)" x1="6" y1="7.5625" x2="40.984001" y2="7.5625"/>
    <linearGradient id="linearGradient5066" y2="7.5625" gradientUnits="userSpaceOnUse" x2="40.984001" gradientTransform="translate(8.018485,8.000004)" y1="7.5625" x1="6">
      <stop id="stop2921-2" stop-color="#a3a4a0" offset="0"/>
      <stop id="stop2923-9" stop-color="#888a85" offset="1"/>
    </linearGradient>
    <radialGradient inkscape:collect="always" xlink:href="#radialGradient5062" id="radialGradient3497" gradientUnits="userSpaceOnUse" gradientTransform="matrix(0.4206982,0,0,0.10417298,32.107439,34.625545)" cx="37.375" cy="33.188" r="14.625"/>
    <radialGradient id="radialGradient5062" gradientUnits="userSpaceOnUse" cy="33.188" cx="37.375" gradientTransform="matrix(0.4206982,0,0,0.10417298,32.107439,34.625545)" r="14.625">
      <stop id="stop4335-4" stop-color="#000" offset="0"/>
      <stop id="stop4337-0" stop-color="#000" stop-opacity="0" offset="1"/>
    </radialGradient>
    <filter style="color-interpolation-filters:sRGB" id="filter3436-4" height="1.2801698" width="1.1580106" y="-0.14008497" x="-0.079005308">
      <feGaussianBlur id="feGaussianBlur3438-7" stdDeviation="0.3190069"/>
    </filter>
    <radialGradient inkscape:collect="always" xlink:href="#radialGradient5058" id="radialGradient3499" gradientUnits="userSpaceOnUse" gradientTransform="matrix(1.5911065,-0.078428,0.09931994,1.9582576,6.126162,-1.554338)" cx="27.5" cy="22.614" r="6.5"/>
    <radialGradient id="radialGradient5058" gradientUnits="userSpaceOnUse" cy="22.614" cx="27.5" gradientTransform="matrix(1.5911065,-0.078428,0.09931994,1.9582576,6.126162,-1.554338)" r="6.5">
      <stop id="stop3348-2" stop-color="#737373" offset="0"/>
      <stop id="stop3350-8" stop-color="#000" stop-opacity="0" offset="1"/>
    </radialGradient>
    <linearGradient inkscape:collect="always" xlink:href="#linearGradient5055" id="linearGradient3501" gradientUnits="userSpaceOnUse" gradientTransform="matrix(1.2744752,0,0,1.0288787,19.194924,41.194555)" x1="27.681" y1="14.243" x2="21.440001" y2="9.2770004"/>
    <linearGradient id="linearGradient5055" y2="9.2770004" gradientUnits="userSpaceOnUse" x2="21.440001" gradientTransform="matrix(1.2744752,0,0,1.0288787,19.194924,41.194555)" y1="14.243" x1="27.681">
      <stop id="stop3230-5" stop-color="#373737" offset="0"/>
      <stop id="stop3232-8" stop-color="#cfcfcf" stop-opacity="0.67826086" offset="1"/>
    </linearGradient>
    <linearGradient inkscape:collect="always" xlink:href="#linearGradient3198" id="linearGradient3503" gradientUnits="userSpaceOnUse" gradientTransform="matrix(1.2818465,0,0,0.9398128,19.025385,42.174275)" x1="25.268999" y1="12.038" x2="17.799" y2="5.0353999"/>
    <linearGradient id="linearGradient3198">
      <stop id="stop3200" stop-color="#FFF" offset="0"/>
      <stop id="stop3202" stop-color="#FFF" stop-opacity="0" offset="1"/>
    </linearGradient>
    <linearGradient inkscape:collect="always" xlink:href="#linearGradient5049" id="linearGradient3505" gradientUnits="userSpaceOnUse" gradientTransform="matrix(1.0342194,0,0,1.0195661,23.686591,16.1036)" x1="29" y1="33" x2="19" y2="27"/>
    <linearGradient id="linearGradient5049" y2="27" gradientUnits="userSpaceOnUse" x2="19" gradientTransform="matrix(1.0342194,0,0,1.0195661,23.686591,16.1036)" y1="33" x1="29">
      <stop id="stop3222-4" stop-color="#373737" offset="0"/>
      <stop id="stop3224-6" stop-color="#FFF" offset="1"/>
    </linearGradient>
    <radialGradient inkscape:collect="always" xlink:href="#radialGradient5045" id="radialGradient3507" gradientUnits="userSpaceOnUse" gradientTransform="matrix(0.9811466,-0.3224151,0.1189352,0.3517503,21.938665,40.764725)" cx="26.625" cy="26.577" r="12.5"/>
    <radialGradient id="radialGradient5045" gradientUnits="userSpaceOnUse" cy="26.577" cx="26.625" gradientTransform="matrix(0.9811466,-0.3224151,0.1189352,0.3517503,21.938665,40.764725)" r="12.5">
      <stop id="stop3191-5" stop-color="#e40000" offset="0"/>
      <stop id="stop3193-0" stop-color="#490000" offset="1"/>
    </radialGradient>
    <radialGradient inkscape:collect="always" xlink:href="#radialGradient5040" id="radialGradient3509" gradientUnits="userSpaceOnUse" gradientTransform="matrix(1.2818465,0,0,0.46520969,19.025384,30.358045)" cx="25.017" cy="13.192" r="9.7512999"/>
    <radialGradient id="radialGradient5040" gradientUnits="userSpaceOnUse" cy="13.192" cx="25.017" gradientTransform="matrix(1.2818465,0,0,0.46520969,19.025384,30.358045)" r="9.7512999">
      <stop id="stop3173-1" stop-color="#fd0000" offset="0"/>
      <stop id="stop3175-0" stop-color="#6a0000" offset="1"/>
    </radialGradient>
    <linearGradient inkscape:collect="always" xlink:href="#linearGradient5042" id="linearGradient3511" gradientUnits="userSpaceOnUse" gradientTransform="matrix(1.2818465,0,0,0.9398128,19.025384,25.137415)" x1="27.216999" y1="15.984" x2="22.035999" y2="7.1352"/>
    <linearGradient id="linearGradient5042" y2="7.1352" gradientUnits="userSpaceOnUse" x2="22.035999" gradientTransform="matrix(1.2818465,0,0,0.9398128,19.025384,25.137415)" y1="15.984" x1="27.216999">
      <stop id="stop4404-11" stop-color="#e80000" offset="0"/>
      <stop id="stop4406-0" stop-color="#490000" offset="1"/>
    </linearGradient>
    <linearGradient inkscape:collect="always" xlink:href="#linearGradient3198" id="linearGradient3513" gradientUnits="userSpaceOnUse" gradientTransform="matrix(1.0293043,0,0,1.0285483,23.839351,16.155369)" x1="30.375999" y1="25.27" x2="22" y2="19"/>
    <linearGradient inkscape:collect="always" xlink:href="#linearGradient3198" id="linearGradient3515" gradientUnits="userSpaceOnUse" gradientTransform="matrix(1.0342194,0,0,1.019566,24.571252,15.42453)" x1="17.605" y1="18.312" x2="23" y2="18.312"/>
    <radialGradient inkscape:collect="always" xlink:href="#radialGradient5029" id="radialGradient3517" gradientUnits="userSpaceOnUse" gradientTransform="matrix(1.0342194,0,0,0.1874519,31.947665,33.705235)" cx="18" cy="14.19" r="5.5054998"/>
    <radialGradient id="radialGradient5029" gradientUnits="userSpaceOnUse" cy="14.19" cx="18" gradientTransform="matrix(1.0342194,0,0,0.1874519,31.947665,33.705235)" r="5.5054998">
      <stop id="stop3454-8" stop-color="#FFF" offset="0"/>
      <stop id="stop3456-9" stop-color="#FFF" stop-opacity="0" offset="1"/>
    </radialGradient>
    <linearGradient inkscape:collect="always" xlink:href="#linearGradient3468" id="linearGradient3519" gradientUnits="userSpaceOnUse" gradientTransform="translate(-8.0000004,15.967633)" x1="16" y1="27.5" x2="20.5" y2="25.5"/>
    <linearGradient id="linearGradient3468" y2="25.5" gradientUnits="userSpaceOnUse" x2="20.5" gradientTransform="translate(-8.0000004,15.967633)" y1="27.5" x1="16">
      <stop id="stop3375" stop-color="#000" offset="0"/>
      <stop id="stop3377" stop-color="#373737" stop-opacity="0" offset="1"/>
    </linearGradient>
    <linearGradient inkscape:collect="always" xlink:href="#linearGradient3470" id="linearGradient3522" gradientUnits="userSpaceOnUse" gradientTransform="translate(-8.0000004,15.967633)" x1="16" y1="27" x2="21.5" y2="27"/>
    <linearGradient id="linearGradient3470" y2="27" gradientUnits="userSpaceOnUse" x2="21.5" gradientTransform="translate(-8.0000004,15.967633)" y1="27" x1="16">
      <stop id="stop3444" stop-color="#000" offset="0"/>
      <stop id="stop3446" stop-color="#000" stop-opacity="0" offset="1"/>
    </linearGradient>
    <filter style="color-interpolation-filters:sRGB" id="filter3391-8" height="1.336" width="1.1344" y="-0.168" x="-0.067199998">
      <feGaussianBlur id="feGaussianBlur3393-1" stdDeviation="0.14"/>
    </filter>
    <radialGradient inkscape:collect="always" xlink:href="#linearGradient2804" id="radialGradient3524" gradientUnits="userSpaceOnUse" gradientTransform="matrix(9.835652,1.854444e-6,0,1.136384,-103.68635,-0.914852)" cx="12.322" cy="11.669" r="1.5"/>
    <linearGradient id="linearGradient2804">
      <stop id="stop2806" stop-color="#FFF" offset="0"/>
      <stop id="stop2808" stop-color="#d3d7cf" offset="1"/>
    </linearGradient>
    <linearGradient inkscape:collect="always" xlink:href="#linearGradient2791" id="linearGradient3527" gradientUnits="userSpaceOnUse" gradientTransform="translate(5.007851,1.000004)" x1="11.669" y1="6.7284002" x2="11.581" y2="14.663"/>
    <linearGradient id="linearGradient2791">
      <stop id="stop2793" stop-color="#555753" offset="0"/>
      <stop id="stop2799" stop-color="#cccdcb" offset="0.5"/>
      <stop id="stop2795" stop-color="#555753" offset="1"/>
    </linearGradient>
    <radialGradient inkscape:collect="always" xlink:href="#linearGradient2804" id="radialGradient3529" gradientUnits="userSpaceOnUse" gradientTransform="matrix(9.835652,1.854444e-6,0,1.136384,-108.6942,-1.914856)" cx="12.322" cy="11.669" r="1.5"/>
    <linearGradient inkscape:collect="always" xlink:href="#linearGradient2791" id="linearGradient3531" gradientUnits="userSpaceOnUse" x1="11.669" y1="6.7284002" x2="11.581" y2="14.663"/>
    <radialGradient inkscape:collect="always" xlink:href="#linearGradient2804" id="radialGradient3533" gradientUnits="userSpaceOnUse" gradientTransform="matrix(9.835652,1.854444e-6,0,1.136384,-108.6942,-1.914856)" cx="12.322" cy="11.669" r="1.5"/>
    <radialGradient inkscape:collect="always" xlink:href="#linearGradient2804" id="radialGradient3537" gradientUnits="userSpaceOnUse" gradientTransform="matrix(9.835652,1.854444e-6,0,1.136384,-108.6942,-1.914856)" cx="12.322" cy="11.669" r="1.5"/>
    <radialGradient inkscape:collect="always" xlink:href="#linearGradient2804" id="radialGradient3542" gradientUnits="userSpaceOnUse" gradientTransform="matrix(9.835652,1.854444e-6,0,1.136384,-108.6942,-1.914856)" cx="12.322" cy="11.669" r="1.5"/>
    <radialGradient inkscape:collect="always" xlink:href="#linearGradient2804" id="radialGradient3546" gradientUnits="userSpaceOnUse" gradientTransform="matrix(9.835652,1.854444e-6,0,1.136384,-108.6942,-1.914856)" cx="12.322" cy="11.669" r="1.5"/>
    <radialGradient inkscape:collect="always" xlink:href="#linearGradient2804" id="radialGradient3550" gradientUnits="userSpaceOnUse" gradientTransform="matrix(9.835652,1.854444e-6,0,1.136384,-108.6942,-1.914856)" cx="12.322" cy="11.669" r="1.5"/>
    <radialGradient inkscape:collect="always" xlink:href="#linearGradient2804" id="radialGradient3554" gradientUnits="userSpaceOnUse" gradientTransform="matrix(9.835652,1.854444e-6,0,1.136384,-108.6942,-1.914856)" cx="12.322" cy="11.669" r="1.5"/>
    <linearGradient inkscape:collect="always" xlink:href="#linearGradient2791" id="linearGradient5936" gradientUnits="userSpaceOnUse" x1="11.669" y1="6.7284002" x2="11.581" y2="14.663"/>
    <linearGradient inkscape:collect="always" xlink:href="#linearGradient2791" id="linearGradient5938" gradientUnits="userSpaceOnUse" x1="11.669" y1="6.7284002" x2="11.581" y2="14.663"/>
    <linearGradient inkscape:collect="always" xlink:href="#linearGradient2791" id="linearGradient5940" gradientUnits="userSpaceOnUse" x1="11.669" y1="6.7284002" x2="11.581" y2="14.663"/>
    <linearGradient inkscape:collect="always" xlink:href="#linearGradient2791" id="linearGradient5942" gradientUnits="userSpaceOnUse" x1="11.669" y1="6.7284002" x2="11.581" y2="14.663"/>
    <linearGradient inkscape:collect="always" xlink:href="#linearGradient2791" id="linearGradient5944" gradientUnits="userSpaceOnUse" x1="11.669" y1="6.7284002" x2="11.581" y2="14.663"/>
    <linearGradient inkscape:collect="always" xlink:href="#linearGradient2791" id="linearGradient5946" gradientUnits="userSpaceOnUse" x1="11.669" y1="6.7284002" x2="11.581" y2="14.663"/>
  </defs>
  <sodipodi:namedview id="base" pagecolor="#ffffff" bordercolor="#666666" borderopacity="1.0" inkscape:pageopacity="0.0" inkscape:pageshadow="2" inkscape:zoom="0.97227183" inkscape:cx="341.26257" inkscape:cy="227.62504" inkscape:current-layer="layer1" showgrid="true" inkscape:document-units="px" inkscape:grid-bbox="true" inkscape:window-width="1410" inkscape:window-height="855" inkscape:window-x="30" inkscape:window-y="0" inkscape:window-maximized="1"/>
  <metadata id="metadata4941">
    <rdf:RDF>
      <cc:Work rdf:about="">
        <dc:format>image/svg+xml</dc:format>
        <dc:type rdf:resource="http://purl.org/dc/dcmitype/StillImage"/>
        <dc:title/>
      </cc:Work>
    </rdf:RDF>
  </metadata>
  <g id="layer1" inkscape:label="Layer 1" inkscape:groupmode="layer" transform="translate(0,448)">
    <g id="g3283" transform="matrix(10.368552,0,0,10.36855,-72.434906,-531.01836)">
      <rect x="15.45" y="45.008999" width="32.386002" height="9.9821997" id="rect3285" style="opacity:0.40206;fill:url(#linearGradient3483);fill-rule:nonzero"/>
      <path d="m 47.837,45.009 0,9.9816 c 3.4541,0.0188 8.3503,-2.2364 8.3503,-4.9914 0,-2.7551 -3.8545,-4.9902 -8.3503,-4.9902 z" id="path3287" style="opacity:0.40206185;fill:url(#radialGradient3485);fill-rule:nonzero" inkscape:connector-curvature="0"/>
      <path d="m 15.45,45.009 0,9.9816 c -3.454,0.019 -8.35,-2.236 -8.35,-4.992 0,-2.7551 3.8545,-4.9902 8.3503,-4.9902 z" id="path3289" style="opacity:0.40206185;fill:url(#radialGradient3487);fill-rule:nonzero" inkscape:connector-curvature="0"/>
      <path stroke-miterlimit="4" d="m 15.182,12.506 32.649,0 c 0.76258,0 1.3765,0.53245 1.3765,1.1938 0,0 2.4013,34.169 2.4013,34.169 0,0 0.01246,2.3476 0.01246,2.3476 0,0.66138 -0.61392,1.1938 -1.3765,1.1938 l -37.477,0 c -0.76258,0 -1.3765,-0.53245 -1.3765,-1.1938 l -0.01117,-2.1669 2.425,-34.349 c 0,-0.66139 0.61392,-1.1938 1.3765,-1.1938 z" id="path3291" style="fill:url(#linearGradient3489);fill-rule:evenodd;stroke:url(#linearGradient3491);stroke-width:0.99999982;stroke-linecap:butt;stroke-linejoin:miter;stroke-miterlimit:4;stroke-dashoffset:0" inkscape:connector-curvature="0"/>
      <rect x="41.435001" y="20.023001" width="5.5209999" height="1" ry="0.5" rx="0.5521" id="rect3293" style="opacity:0.47999998;fill:#888a85"/>
      <rect x="35.914001" y="30" width="2.3464" height="1" ry="0.5" rx="0.5521" id="rect3295" style="opacity:0.47999998;fill:#888a85"/>
      <rect x="16.007999" y="36" width="4.085" height="1" ry="0.5" rx="0.50889999" id="rect3298" style="opacity:0.47999998;fill:#888a85"/>
      <rect x="32.601002" y="24" width="9.2649002" height="1" ry="0.5" rx="0.5521" id="rect3300" style="opacity:0.47999998;fill:#888a85"/>
      <rect x="32.584" y="26" width="3.8819001" height="1" ry="0.5" rx="0.54680002" id="rect3302" style="opacity:0.47999998;fill:#888a85"/>
      <rect x="43.643002" y="34" width="4.4168" height="1" ry="0.5" rx="0.5521" id="rect3304" style="opacity:0.47999998;fill:#888a85"/>
      <rect x="30.583" y="36" width="3.3125999" height="1" ry="0.5" rx="0.5521" id="rect3306" style="opacity:0.47999998;fill:#888a85"/>
      <rect x="42.539001" y="30" width="5.5209999" height="1" ry="0.5" rx="0.59887999" id="rect3308" style="opacity:0.47999998;fill:#888a85"/>
      <rect x="37.018002" y="28" width="2.9158001" height="1" ry="0.5" rx="0.5521" id="rect3310" style="opacity:0.47999998;fill:#888a85"/>
      <rect x="34.446999" y="35.977001" width="6.6251998" height="1" ry="0.5" rx="0.5521" id="rect3312" style="opacity:0.47999998;fill:#888a85"/>
      <rect x="32.601002" y="20" width="5.5209999" height="1" ry="0.5" rx="0.5521" id="rect3314" style="opacity:0.47999998;fill:#888a85"/>
      <rect x="38.122002" y="20.023001" width="2.2084" height="1" ry="0.5" rx="0.5521" id="rect3316" style="opacity:0.47999998;fill:#888a85"/>
      <rect x="42.176998" y="35.977001" width="2.2084" height="1" ry="0.5" rx="0.5521" id="rect3318" style="opacity:0.47999998;fill:#888a85"/>
      <rect x="45.852001" y="36" width="2.2084" height="1" ry="0.5" rx="0.5521" id="rect3320" style="opacity:0.47999998;fill:#888a85"/>
      <rect x="42.539001" y="22" width="4.4168" height="1" ry="0.5" rx="0.59887999" id="rect3322" style="opacity:0.47999998;fill:#888a85"/>
      <rect x="37.018002" y="22" width="2.2084" height="1" ry="0.5" rx="0.59887999" id="rect3324" style="opacity:0.47999998;fill:#888a85"/>
      <rect x="32.601002" y="22" width="4.4168" height="1" ry="0.5" rx="0.59887999" id="rect3326" style="opacity:0.47999998;fill:#888a85"/>
      <rect x="42.539001" y="24" width="4.4168" height="1" ry="0.5" rx="0.59887999" id="rect3328" style="opacity:0.47999998;fill:#888a85"/>
      <rect x="34.810001" y="28" width="2.2084" height="1" ry="0.5" rx="0.59887999" id="rect3330" style="opacity:0.47999998;fill:#888a85"/>
      <rect x="39.226002" y="30" width="3.3125999" height="1" ry="0.5" rx="0.59887999" id="rect3332" style="opacity:0.47999998;fill:#888a85"/>
      <rect x="37.57" y="26" width="2.2084" height="1" ry="0.5" rx="0.59887999" id="rect3334" style="opacity:0.47999998;fill:#888a85"/>
      <rect x="40.882999" y="26" width="4.4168" height="1" ry="0.5" rx="0.59887999" id="rect3336" style="opacity:0.47999998;fill:#888a85"/>
      <rect x="45.299" y="26" width="2.2084" height="1" ry="0.5" rx="0.59887999" id="rect3338" style="opacity:0.47999998;fill:#888a85"/>
      <rect x="32.601002" y="28" width="2.2084" height="1" ry="0.5" rx="0.59887999" id="rect3340" style="opacity:0.47999998;fill:#888a85"/>
      <rect x="41.037998" y="28" width="2.2084" height="1" ry="0.5" rx="0.59887999" id="rect3342" style="opacity:0.47999998;fill:#888a85"/>
      <rect x="43.245998" y="28" width="4.4168" height="1" ry="0.5" rx="0.59887999" id="rect3344" style="opacity:0.47999998;fill:#888a85"/>
      <rect x="32.601002" y="30" width="2.2084" height="1" ry="0.5" rx="0.59887999" id="rect3346" style="opacity:0.47999998;fill:#888a85"/>
      <rect x="21.749001" y="36" width="6.6251998" height="1" ry="0.5" rx="0.59887999" id="rect3348" style="opacity:0.47999998;fill:#888a85"/>
      <rect x="16.038" y="34" width="2.2084" height="1" ry="0.5" rx="0.5521" id="rect3350" style="opacity:0.47999998;fill:#888a85"/>
      <rect x="19.351" y="34" width="4.4168" height="1" ry="0.5" rx="0.59887999" id="rect3352" style="opacity:0.47999998;fill:#888a85"/>
      <rect x="25.976" y="34" width="5.5209999" height="1" ry="0.5" rx="0.59887999" id="rect3354" style="opacity:0.47999998;fill:#888a85"/>
      <rect x="32.601002" y="34" width="4.4168" height="1" ry="0.5" rx="0.59887999" id="rect3356" style="opacity:0.47999998;fill:#888a85"/>
      <rect x="38.131001" y="34.004002" width="4.4168" height="1" ry="0.5" rx="0.59887999" id="rect3358" style="opacity:0.47999998;fill:#888a85"/>
      <path d="m 32.465,31.632 0,0.36804 -6.1235,0 0,-0.36804 c 0.64036,-0.0129 1.0806,-0.0646 1.3208,-0.15496 0.24013,-0.0904 0.3602,-0.25827 0.36021,-0.50362 -1.1e-5,-0.30993 -0.1521,-0.74253 -0.45626,-1.2978 l -0.98456,-1.8595 -6.2916,0 -1.1046,2.2663 c -0.12808,0.27118 -0.19211,0.52299 -0.19211,0.75543 -3e-6,0.52946 0.54431,0.79418 1.6329,0.79418 l 0,0.36804 -4.7547,0 0,-0.36804 c 0.59234,-0.0258 1.0486,-0.20661 1.3688,-0.54236 0.33619,-0.34867 0.8725,-1.2268 1.6089,-2.6344 l 4.9949,-9.5108 0.48028,0 5.9794,11.002 c 0.41622,0.72316 0.74441,1.1816 0.98456,1.3753 0.24012,0.18079 0.63235,0.2841 1.1767,0.30992 m -11.767,-4.6101 5.5472,0 -2.7856,-5.3268 -2.7616,5.3268" id="path3360" style="fill:url(#linearGradient3493)" inkscape:connector-curvature="0"/>
      <rect x="43.634998" y="31.996" width="4.4168" height="1" ry="0.5" rx="0.5521" id="rect3362" style="opacity:0.47999998;fill:#888a85"/>
      <rect x="32.592999" y="31.996" width="4.4168" height="1" ry="0.5" rx="0.59887999" id="rect3364" style="opacity:0.47999998;fill:#888a85"/>
      <rect x="38.122002" y="32" width="4.4168" height="1" ry="0.5" rx="0.59887999" id="rect3366" style="opacity:0.47999998;fill:#888a85"/>
      <rect x="-19.360001" y="37.995998" width="3.8517001" height="1" ry="0.47170001" rx="0.5521" transform="scale(-1,1)" id="rect3368" style="opacity:0.47999998;fill:#888a85"/>
      <rect x="-47.507999" y="38" width="2.2084" height="1" ry="0.5" rx="0.5521" transform="scale(-1,1)" id="rect3370" style="opacity:0.47999998;fill:#888a85"/>
      <rect x="-43.652" y="37.995998" width="4.4168" height="1" ry="0.5" rx="0.59887999" transform="scale(-1,1)" id="rect3372" style="opacity:0.47999998;fill:#888a85"/>
      <rect x="-37.027" y="37.995998" width="5.5209999" height="1" ry="0.5" rx="0.59887999" transform="scale(-1,1)" id="rect3374" style="opacity:0.47999998;fill:#888a85"/>
      <rect x="-30.402" y="37.995998" width="4.4168" height="1" ry="0.5" rx="0.59887999" transform="scale(-1,1)" id="rect3376" style="opacity:0.47999998;fill:#888a85"/>
      <rect x="-24.872" y="38" width="4.4168" height="1" ry="0.5" rx="0.59887999" transform="scale(-1,1)" id="rect3378" style="opacity:0.47999998;fill:#888a85"/>
      <rect x="11.996" y="47.868" width="39.048" height="3.0715001" ry="0.67938" rx="0.67938" id="rect3380" style="fill:#a4a4a4;fill-rule:evenodd"/>
      <path d="m 11.945,48.443 c 0,0 0.15086,-0.53033 0.70402,-0.57452 l 37.565,0 c 0.75431,0 0.8046,0.7513 0.8046,0.7513 0,0 0.0236,-1.6196 -1.2839,-1.6196 l -36.412,0 c -1.0057,0.0884 -1.3775,0.77988 -1.3775,1.4428 z" id="path3382" inkscape:connector-curvature="0" style="fill:#ffffff;fill-rule:evenodd"/>
      <path d="m 14.268,13.734 -0.25,4.3906 c 0,0 0.3125,-1.125 1,-1.125 l 33.125,0 c 0.70312,-0.01563 0.73438,0.3125 0.85938,0.82812 0,0 -0.25,-3.875 -0.25,-3.875 -0.03125,-0.54688 -0.21875,-0.95312 -0.78125,-0.95312 l -32.891,0 c -0.45312,0 -0.76562,0.34375 -0.8125,0.73438 z" id="path3384" style="fill:url(#linearGradient3495);fill-rule:evenodd" inkscape:connector-curvature="0"/>
      <path stroke-miterlimit="4" d="m 15.831,13.54 31.132,0 c 0.72204,0 1.3033,-0.1521 1.3033,0.47412 0,0 2.2737,33.009 2.2737,33.009 0,0 0.10018,2.709 0.10018,2.709 0,0.62623 -0.13934,0.64424 -0.86137,0.64424 l -36.899,0 c -0.41268,0 -0.41943,-0.1064 -0.41943,-0.51166 l -0.01058,-2.6704 2.296,-33.148 c 0,-0.62623 0.36253,-0.50537 1.0846,-0.50537 z" id="path3386" inkscape:connector-curvature="0" style="opacity:0.43859648;fill:none;stroke:#ffffff;stroke-width:0.99999946;stroke-linecap:butt;stroke-linejoin:miter;stroke-miterlimit:4;stroke-dashoffset:0"/>
      <path d="m 53.984,38.083 a 6.1527,1.5235 0 0 1 -12.305,0 6.1527,1.5235 0 1 1 12.305,0 z" id="path3388" style="opacity:0.07000002;fill:url(#radialGradient3497)" inkscape:connector-curvature="0"/>
      <path stroke-miterlimit="0" transform="matrix(1.2818465,0,0,0.9398128,19.025384,42.993515)" d="m 27.438,11 a 4.4375,2.1843 0 1 1 -8.875,0 4.4375,2.1843 0 1 1 8.875,0 z" style="opacity:0.2;fill:#000000;stroke:#000000;stroke-width:0.61406273;stroke-linecap:round;stroke-linejoin:round;stroke-miterlimit:0;stroke-dasharray:none;filter:url(#filter3436-4)" id="path3390" inkscape:connector-curvature="0"/>
      <path d="m 53.679,26.809 c -0.51711,-1.0196 -9.8251,-1.0196 -10.342,0 0,1.5294 -1.5513,6.1174 -1.5513,10.196 0,4.0783 5.1711,6.6272 6.7224,6.6272 1.5513,0 6.7224,-2.5489 6.7224,-6.6272 0,-4.0783 -1.5513,-8.6663 -1.5513,-10.196 z" id="path3392" style="fill:url(#radialGradient3499);fill-rule:evenodd" inkscape:connector-curvature="0"/>
      <path stroke-miterlimit="0" d="m 53.986,52.512 a 5.4785,1.9784361 0 1 1 -10.957,0 5.4785,1.9784361 0 1 1 10.957,0 z" style="fill:url(#linearGradient3501);stroke:#888a85;stroke-width:1.04329979;stroke-linecap:round;stroke-linejoin:round;stroke-miterlimit:0;stroke-dasharray:none" id="path3394" inkscape:connector-curvature="0"/>
      <path stroke-miterlimit="0" d="m 53.008,52.512 a 4.5,1.2723 0 0 1 -9,0 4.5,1.2723 0 1 1 9,0 z" style="fill:none;stroke:url(#linearGradient3503);stroke-width:1;stroke-linecap:round;stroke-linejoin:round;stroke-miterlimit:0;stroke-dasharray:none" id="path3396" inkscape:connector-curvature="0"/>
      <path d="m 45.922,42.612 c 1.0342,1.0196 2.0684,2.5489 2.0684,8.1565 0,1.0196 0.13988,1.5294 0.51711,1.5294 0.37723,0 0.51711,-0.50978 0.51711,-1.5294 0,-5.6076 1.0342,-7.137 2.0684,-8.1565" id="path3398" style="fill:url(#linearGradient3505);fill-rule:evenodd;stroke:#888a85;stroke-width:1;stroke-linecap:round;stroke-linejoin:miter" inkscape:connector-curvature="0"/>
      <path d="m 41.508,35.512 c 0,6 5.4487,8.1197 7,8.1197 1.5513,0 7,-2.1197 7,-8.1197" id="path3400" style="fill:url(#radialGradient3507);fill-rule:evenodd" inkscape:connector-curvature="0"/>
      <path stroke-miterlimit="0" d="m 54.841,35.475 a 6.3335,1.5293483 0 0 1 -12.667,0 6.3335,1.5293483 0 1 1 12.667,0 z" style="fill:url(#radialGradient3509);stroke:url(#linearGradient3511);stroke-width:0.67398685;stroke-linecap:round;stroke-linejoin:round;stroke-miterlimit:0;stroke-dasharray:none" id="path3402" inkscape:connector-curvature="0"/>
      <path d="m 53.102,28.825 -10.5,6.9062 c -0.47185,2.1071 0.57612,3.8839 1.9688,5.1562 0.69977,0.6393 1.4779,1.1545 2.1875,1.5 0.70965,0.3455 1.3655,0.53125 1.75,0.53125 0.38459,0 1.0458,-0.20766 1.7812,-0.5625 0.73541,-0.35485 1.5613,-0.85244 2.2812,-1.5312 1.4399,-1.3576 2.4993,-3.3228 1.8438,-5.7812 a 0.10694,0.10694 0 0 1 0,-0.0312 c -0.32628,-2.6102 -0.67143,-3.938 -1.3125,-6.1875 z" id="path3404" style="fill:none;stroke:url(#linearGradient3513);stroke-width:1;stroke-linecap:round;stroke-linejoin:miter" inkscape:connector-curvature="0"/>
      <path d="m 44.739,28.679 3.1027,0 c 0,0 -1.5513,6.1174 -1.5513,8.6663 0,1.5294 1.0342,2.5489 0.51711,3.0587 -0.51711,0.50978 -3.1027,-1.4789 -3.1027,-4.0783 0,-1.0196 0.51711,-4.0783 1.0342,-7.6468 z" id="path3406" style="fill:url(#linearGradient3515);fill-rule:evenodd" inkscape:connector-curvature="0"/>
      <path stroke-miterlimit="0" d="m 53.692,26.739 a 5.1841,1.2399 0 1 1 -7.84e-4,-0.0215" style="fill:none;stroke:#919191;stroke-width:0.97392541;stroke-linecap:round;stroke-linejoin:round;stroke-miterlimit:0;stroke-dasharray:none" id="path3408" inkscape:connector-curvature="0"/>
      <path stroke-miterlimit="0" d="m 53.508,27.977 c -0.33333,0.33334 -2.3078,0.69994 -5.1622,0.69994 -2.8544,0 -4.5044,-0.3666 -4.8378,-0.69994" id="path3410" inkscape:connector-curvature="0" style="fill:none;stroke:#ffffff;stroke-width:0.67398679;stroke-linecap:round;stroke-linejoin:round;stroke-miterlimit:0"/>
      <path stroke-miterlimit="0" d="m 54.508,35.012 c 0,0.57036 -2.3333,1.3333 -6.0127,1.3666 C 44.816,36.4119 42.508,35.58236 42.508,35.012" id="path3412" style="fill:none;stroke:url(#radialGradient3517);stroke-width:0.67398679;stroke-linecap:round;stroke-linejoin:round;stroke-miterlimit:0" inkscape:connector-curvature="0"/>
      <path d="m 47.175,44.012 c 0,0 0.33333,0.66666 1.3333,0.63922 1,-0.0274 1.3333,-0.63922 1.3333,-0.63922" id="path3414" inkscape:connector-curvature="0" style="opacity:0.35;fill:none;stroke:#000000;stroke-width:0.66666669px;stroke-linecap:round;stroke-linejoin:round"/>
      <path transform="matrix(1.0342194,0,0,1.019566,40.2341,7.694102)" d="m 8,43.468 2.5,-1 2.4688,0.125 -4.9687,0.875 z" id="path3416" style="fill:url(#linearGradient3519);fill-rule:evenodd;stroke:url(#linearGradient3522);stroke-width:0.64922434px;stroke-linecap:round;stroke-linejoin:round;filter:url(#filter3391-8)" inkscape:connector-curvature="0"/>
      <path d="m 53.679,26.809 c -0.6711,-1.7968 -9.6711,-1.7968 -10.342,0 0,1.5294 -1.8289,6.1249 -1.8289,10.203 0,4.0783 5.4487,6.6197 7,6.6197 1.5513,0 7,-2.5414 7,-6.6197 0,-4.0783 -1.8289,-8.6738 -1.8289,-10.203 z" id="path3418" inkscape:connector-curvature="0" style="fill:none;stroke:#919191;stroke-width:1;stroke-linecap:round;stroke-linejoin:miter"/>
      <path d="m 19.742,14.997 a 1.9922,2.0026 0 0 1 -3.9844,0 1.9922,2.0026 0 1 1 3.9844,0 z" id="path3421" inkscape:connector-curvature="0" style="fill:#cbcbc9"/>
      <path d="m 23.742,14.997 a 1.9922,2.0026 0 0 1 -3.9844,0 1.9922,2.0026 0 1 1 3.9844,0 z" id="path3423" inkscape:connector-curvature="0" style="fill:#cbcbc9"/>
      <path d="m 27.742,14.997 a 1.9922,2.0026 0 0 1 -3.9844,0 1.9922,2.0026 0 1 1 3.9844,0 z" id="path3425" inkscape:connector-curvature="0" style="fill:#cbcbc9"/>
      <path d="m 31.742,14.997 a 1.9922,2.0026 0 0 1 -3.9844,0 1.9922,2.0026 0 1 1 3.9844,0 z" id="path3427" inkscape:connector-curvature="0" style="fill:#cbcbc9"/>
      <path d="m 35.742,14.997 a 1.9922,2.0026 0 0 1 -3.9844,0 1.9922,2.0026 0 1 1 3.9844,0 z" id="path3429" inkscape:connector-curvature="0" style="fill:#cbcbc9"/>
      <path d="m 39.742,14.997 a 1.9922,2.0026 0 0 1 -3.9844,0 1.9922,2.0026 0 1 1 3.9844,0 z" id="path3431" inkscape:connector-curvature="0" style="fill:#cbcbc9"/>
      <path d="m 43.742,14.997 a 1.9922,2.0026 0 0 1 -3.9844,0 1.9922,2.0026 0 1 1 3.9844,0 z" id="path3433" inkscape:connector-curvature="0" style="fill:#cbcbc9"/>
      <rect x="16.509001" y="10.501" stroke-miterlimit="4" width="1.998" height="5.0440001" ry="1.5072" rx="0.99900001" style="fill:url(#radialGradient3524);stroke:url(#linearGradient3527);stroke-width:1.00199997;stroke-linecap:square;stroke-linejoin:miter;stroke-miterlimit:4;stroke-dasharray:none;stroke-dashoffset:1.20000052" id="rect3435"/>
      <path d="m 17.508,12.148 a 0.59375,0.64844 0 0 1 -1.1875,0 0.59375,0.64844 0 1 1 1.1875,0 z" id="path3437" inkscape:connector-curvature="0" style="fill:#ffffff"/>
      <g transform="translate(9.007851,1.000004)" id="g3439">
        <rect x="11.501" y="9.5010004" stroke-miterlimit="4" width="1.998" height="5.0440001" ry="1.5072" rx="0.99900001" style="fill:url(#radialGradient3529);stroke:url(#linearGradient5936);stroke-width:1.00199997;stroke-linecap:square;stroke-linejoin:miter;stroke-miterlimit:4;stroke-dasharray:none;stroke-dashoffset:1.20000052" id="rect3441"/>
        <path transform="translate(-0.21875,-0.109374)" d="m 12.719,11.258 a 0.59375,0.64844 0 1 1 -1.1875,0 0.59375,0.64844 0 1 1 1.1875,0 z" id="path3443" inkscape:connector-curvature="0" style="fill:#ffffff"/>
      </g>
      <g transform="translate(13.007851,1.000004)" id="g3445">
        <rect x="11.501" y="9.5010004" stroke-miterlimit="4" width="1.998" height="5.0440001" ry="1.5072" rx="0.99900001" style="fill:url(#radialGradient3533);stroke:url(#linearGradient5938);stroke-width:1.00199997;stroke-linecap:square;stroke-linejoin:miter;stroke-miterlimit:4;stroke-dasharray:none;stroke-dashoffset:1.20000052" id="rect3447"/>
        <path transform="translate(-0.21875,-0.109374)" d="m 12.719,11.258 a 0.59375,0.64844 0 1 1 -1.1875,0 0.59375,0.64844 0 1 1 1.1875,0 z" id="path3449" inkscape:connector-curvature="0" style="fill:#ffffff"/>
      </g>
      <g transform="translate(17.007851,1.000004)" id="g3451">
        <rect x="11.501" y="9.5010004" stroke-miterlimit="4" width="1.998" height="5.0440001" ry="1.5072" rx="0.99900001" style="fill:url(#radialGradient3537);stroke:url(#linearGradient5940);stroke-width:1.00199997;stroke-linecap:square;stroke-linejoin:miter;stroke-miterlimit:4;stroke-dasharray:none;stroke-dashoffset:1.20000052" id="rect3453"/>
        <path transform="translate(-0.21875,-0.109374)" d="m 12.719,11.258 a 0.59375,0.64844 0 1 1 -1.1875,0 0.59375,0.64844 0 1 1 1.1875,0 z" id="path3455" inkscape:connector-curvature="0" style="fill:#ffffff"/>
      </g>
      <g transform="translate(21.007851,1.000004)" id="g3457">
        <rect x="11.501" y="9.5010004" stroke-miterlimit="4" width="1.998" height="5.0440001" ry="1.5072" rx="0.99900001" style="fill:url(#radialGradient3542);stroke:url(#linearGradient5942);stroke-width:1.00199997;stroke-linecap:square;stroke-linejoin:miter;stroke-miterlimit:4;stroke-dasharray:none;stroke-dashoffset:1.20000052" id="rect3459"/>
        <path transform="translate(-0.21875,-0.109374)" d="m 12.719,11.258 a 0.59375,0.64844 0 1 1 -1.1875,0 0.59375,0.64844 0 1 1 1.1875,0 z" id="path3461" inkscape:connector-curvature="0" style="fill:#ffffff"/>
      </g>
      <g transform="translate(25.007851,1.000004)" id="g3463">
        <rect x="11.501" y="9.5010004" stroke-miterlimit="4" width="1.998" height="5.0440001" ry="1.5072" rx="0.99900001" style="fill:url(#radialGradient3546);stroke:url(#linearGradient5944);stroke-width:1.00199997;stroke-linecap:square;stroke-linejoin:miter;stroke-miterlimit:4;stroke-dasharray:none;stroke-dashoffset:1.20000052" id="rect3465"/>
        <path transform="translate(-0.21875,-0.109374)" d="m 12.719,11.258 a 0.59375,0.64844 0 1 1 -1.1875,0 0.59375,0.64844 0 1 1 1.1875,0 z" id="path3467" inkscape:connector-curvature="0" style="fill:#ffffff"/>
      </g>
      <g transform="translate(29.007851,1.000004)" id="g3469">
        <rect x="11.501" y="9.5010004" stroke-miterlimit="4" width="1.998" height="5.0440001" ry="1.5072" rx="0.99900001" style="fill:url(#radialGradient3550);stroke:url(#linearGradient5946);stroke-width:1.00199997;stroke-linecap:square;stroke-linejoin:miter;stroke-miterlimit:4;stroke-dasharray:none;stroke-dashoffset:1.20000052" id="rect3471"/>
        <path transform="translate(-0.21875,-0.109374)" d="m 12.719,11.258 a 0.59375,0.64844 0 1 1 -1.1875,0 0.59375,0.64844 0 1 1 1.1875,0 z" id="path3473" inkscape:connector-curvature="0" style="fill:#ffffff"/>
      </g>
      <path d="m 47.742,14.997 a 1.9922,2.0026 0 0 1 -3.9844,0 1.9922,2.0026 0 1 1 3.9844,0 z" id="path3475" inkscape:connector-curvature="0" style="fill:#cbcbc9"/>
      <g transform="translate(33.007854,1.000004)" id="g3477">
        <rect x="11.501" y="9.5010004" stroke-miterlimit="4" width="1.998" height="5.0440001" ry="1.5072" rx="0.99900001" style="fill:url(#radialGradient3554);stroke:url(#linearGradient3531);stroke-width:1.00199997;stroke-linecap:square;stroke-linejoin:miter;stroke-miterlimit:4;stroke-dasharray:none;stroke-dashoffset:1.20000052" id="rect3479"/>
        <path transform="translate(-0.21875,-0.109374)" d="m 12.719,11.258 a 0.59375,0.64844 0 1 1 -1.1875,0 0.59375,0.64844 0 1 1 1.1875,0 z" id="path3481" inkscape:connector-curvature="0" style="fill:#ffffff"/>
      </g>
    </g>
  </g>
</svg>